# xmcd
#
# Track frame offsets:
#	150
#	17455
#	36810
#	54472
#	72942
#	90504
#	113907
#	133110
#	151552
#	173359
#	194010
#	213815
#	233280
#	255859
#
# Disc length: 3643 seconds
#
# Revision: 3
# Processed by: cddbd v1.5.2PL0 Copyright (c) Steve Scherf et al.
# Submitted via: EasyCDDAExtractor 12.0.1.1
#
DISCID=9f0e390e
DTITLE=Various Artist - 명작  Duet
DYEAR=1998
DGENRE=Ballad
TTITLE0=이기찬 and 김태영 - 사랑일뿐야
TTITLE1=일기예보 - 인형의 꿈
TTITLE2=이원진 and 류금덕 - 시작되는 연인들을 위해
TTITLE3=휴식 - 사랑했던 날
TTITLE4=더 클래식 - 송가
TTITLE5=여행스케치 - 운명
TTITLE6=자화상 - 나의 고백
TTITLE7=이문세 and 고은희 - 이별이야기
TTITLE8=녹색지대 - 사랑을 할꺼야
TTITLE9=김현철 and 장필순 - 잊지말기로 해
TTITLE10=최원석 and 김태영 - For You (사랑의 테마)
TTITLE11=US - 늘 그리워할께
TTITLE12=이정석 and 조갑경 - 사랑의 대화
TTITLE13=정태춘 and 박은 - 사랑하는 이에게
EXTD=YEAR: 1998 ID3G: 13
EXTT0=
EXTT1=
EXTT2=
EXTT3=
EXTT4=
EXTT5=
EXTT6=
EXTT7=
EXTT8=
EXTT9=
EXTT10=
EXTT11=
EXTT12=
EXTT13=
PLAYORDER=
